<svg width="162" height="162" viewBox="0 0 162 162" fill="none" xmlns="http://www.w3.org/2000/svg">
<g filter="url(#filter0_d_3_324)">
<circle cx="81" cy="63" r="53" fill="#FFE7F2"/>
</g>
<path d="M95.1463 56.622C95.1463 56.4651 94.9422 56.3081 94.8401 56.1512L94.6564 55.9269C94.1811 55.2823 93.5814 54.7616 92.9007 54.4023L79.8352 47.6758C79.1118 47.3097 78.3248 47.1201 77.5283 47.1201C76.7318 47.1201 75.9448 47.3097 75.2215 47.6758L62.156 54.4023C61.4787 54.7677 60.8802 55.2874 60.4003 55.9269L60.1553 56.039C60.0366 56.1739 59.9337 56.3245 59.8491 56.4875C59.3621 57.3332 59.1004 58.3119 59.0938 59.3126V75.1422C59.0965 76.2117 59.3788 77.2577 59.9072 78.156C60.4356 79.0544 61.1878 79.7671 62.0743 80.2095L75.1398 86.9359C75.8659 87.3054 76.6566 87.4968 77.4569 87.4968C78.2572 87.4968 79.0478 87.3054 79.774 86.9359L92.8394 80.2095C93.7235 79.7736 94.4757 79.0692 95.0074 78.1793C95.5391 77.2895 95.8281 76.2513 95.8404 75.187V59.3126C95.83 58.3641 95.5904 57.4356 95.1463 56.622ZM76.8751 51.6893C77.0619 51.6004 77.2634 51.5546 77.4671 51.5546C77.6707 51.5546 77.8722 51.6004 78.0591 51.6893L88.9402 57.2498L77.4671 63.1018L65.994 57.2498L76.8751 51.6893ZM63.7892 76.2184C63.6114 76.1427 63.4582 76.0106 63.3492 75.8389C63.2401 75.6672 63.18 75.4637 63.1767 75.2543V60.7476L75.4256 67.0032V82.0705L63.7892 76.2184ZM91.1246 76.2184L79.5086 82.0705V67.0032L91.7575 60.7476V75.187C91.7621 75.4098 91.7038 75.6286 91.5904 75.8133C91.4771 75.998 91.3143 76.1396 91.1246 76.2184Z" fill="#FF75B7"/>
<defs>
<filter id="filter0_d_3_324" x="0" y="0" width="162" height="162" filterUnits="userSpaceOnUse" color-interpolation-filters="sRGB">
<feFlood flood-opacity="0" result="BackgroundImageFix"/>
<feColorMatrix in="SourceAlpha" type="matrix" values="0 0 0 0 0 0 0 0 0 0 0 0 0 0 0 0 0 0 127 0" result="hardAlpha"/>
<feMorphology radius="12" operator="erode" in="SourceAlpha" result="effect1_dropShadow_3_324"/>
<feOffset dy="18"/>
<feGaussianBlur stdDeviation="20"/>
<feColorMatrix type="matrix" values="0 0 0 0 1 0 0 0 0 0.458824 0 0 0 0 0.717647 0 0 0 0.35 0"/>
<feBlend mode="normal" in2="BackgroundImageFix" result="effect1_dropShadow_3_324"/>
<feBlend mode="normal" in="SourceGraphic" in2="effect1_dropShadow_3_324" result="shape"/>
</filter>
</defs>
</svg>
