<svg width="161" height="155" viewBox="0 0 161 155" fill="none" xmlns="http://www.w3.org/2000/svg">
<g filter="url(#filter0_d_3_339)">
<ellipse cx="80.5" cy="59.5" rx="52.5" ry="49.5" fill="#E2FFF2"/>
</g>
<path d="M92.6722 45.9614H68.3278C66.9148 45.9614 65.5596 46.4438 64.5605 47.3025C63.5613 48.1612 63 49.3259 63 50.5403V71.4627C63 72.6771 63.5613 73.8417 64.5605 74.7004C65.5596 75.5591 66.9148 76.0415 68.3278 76.0415H92.6722C94.0852 76.0415 95.4404 75.5591 96.4395 74.7004C97.4387 73.8417 98 72.6771 98 71.4627V50.5403C98 49.3259 97.4387 48.1612 96.4395 47.3025C95.4404 46.4438 94.0852 45.9614 92.6722 45.9614ZM70.7778 59.3304H66.8889V55.9881H70.7778V59.3304ZM66.8889 62.6726H70.7778V66.0148H66.8889V62.6726ZM74.6667 49.3037H86.3333V72.6993H74.6667V49.3037ZM94.1111 59.3304H90.2222V55.9881H94.1111V59.3304ZM90.2222 62.6726H94.1111V66.0148H90.2222V62.6726ZM94.1111 50.5403V52.6459H90.2222V49.3037H92.6722C92.8612 49.3037 93.0483 49.3356 93.2229 49.3978C93.3974 49.4599 93.5561 49.551 93.6897 49.6659C93.8233 49.7807 93.9293 49.917 94.0016 50.067C94.0739 50.2171 94.1111 50.3779 94.1111 50.5403ZM68.3278 49.3037H70.7778V52.6459H66.8889V50.5403C66.8889 50.3779 66.9261 50.2171 66.9984 50.067C67.0707 49.917 67.1767 49.7807 67.3103 49.6659C67.4439 49.551 67.6026 49.4599 67.7771 49.3978C67.9517 49.3356 68.1388 49.3037 68.3278 49.3037ZM66.8889 71.4627V69.3571H70.7778V72.6993H68.3278C68.1388 72.6993 67.9517 72.6673 67.7771 72.6052C67.6026 72.543 67.4439 72.4519 67.3103 72.3371C67.1767 72.2223 67.0707 72.0859 66.9984 71.9359C66.9261 71.7859 66.8889 71.6251 66.8889 71.4627ZM94.1111 71.4627C94.1111 71.7906 93.9595 72.1052 93.6897 72.3371C93.4198 72.569 93.0538 72.6993 92.6722 72.6993H90.2222V69.3571H94.1111V71.4627Z" fill="#2DFF9C"/>
<defs>
<filter id="filter0_d_3_339" x="0" y="0" width="161" height="155" filterUnits="userSpaceOnUse" color-interpolation-filters="sRGB">
<feFlood flood-opacity="0" result="BackgroundImageFix"/>
<feColorMatrix in="SourceAlpha" type="matrix" values="0 0 0 0 0 0 0 0 0 0 0 0 0 0 0 0 0 0 127 0" result="hardAlpha"/>
<feMorphology radius="12" operator="erode" in="SourceAlpha" result="effect1_dropShadow_3_339"/>
<feOffset dy="18"/>
<feGaussianBlur stdDeviation="20"/>
<feColorMatrix type="matrix" values="0 0 0 0 0.0313726 0 0 0 0 0.996078 0 0 0 0 0.564706 0 0 0 0.35 0"/>
<feBlend mode="normal" in2="BackgroundImageFix" result="effect1_dropShadow_3_339"/>
<feBlend mode="normal" in="SourceGraphic" in2="effect1_dropShadow_3_339" result="shape"/>
</filter>
</defs>
</svg>
