<svg width="195" height="195" viewBox="0 0 195 195" fill="none" xmlns="http://www.w3.org/2000/svg">
<g filter="url(#filter0_d_3_88)">
<ellipse cx="97.4251" cy="79.4201" rx="68.8769" ry="68.8769" transform="rotate(1.29852 97.4251 79.4201)" fill="#FFE7F2"/>
</g>
<path d="M123.206 69.1874C123.212 69.0299 122.929 68.8685 122.79 68.7091L122.538 68.4806C121.889 67.8247 121.058 67.2907 120.107 66.9173L101.838 59.9197C100.827 59.5386 99.718 59.3335 98.5889 59.3184C97.4597 59.3034 96.3369 59.4788 95.2976 59.8325L76.5216 66.3361C75.5477 66.69 74.6796 67.2003 73.9751 67.833L73.6236 67.9409C73.4502 68.074 73.2987 68.2232 73.1726 68.3852C72.4503 69.2248 72.0424 70.202 71.9952 71.2061L71.3979 87.0925C71.3615 88.1658 71.7223 89.221 72.4374 90.1325C73.1526 91.044 74.192 91.7735 75.4321 92.2342L93.7005 99.2318C94.716 99.6163 95.8297 99.8233 96.9642 99.8384C98.0987 99.8536 99.2268 99.6764 100.27 99.3194L119.046 92.8158C120.316 92.395 121.409 91.7023 122.196 90.8194C122.983 89.9364 123.432 88.8999 123.49 87.8321L124.089 71.9007C124.11 70.9486 123.805 70.0123 123.206 69.1874ZM97.4904 63.8916C97.7587 63.806 98.046 63.7638 98.3347 63.7676C98.6234 63.7715 98.9073 63.8213 99.1689 63.914L114.385 69.7001L97.8991 75.3563L81.855 69.2664L97.4904 63.8916ZM78.0137 88.2613C77.7646 88.182 77.5525 88.0465 77.4043 87.8721C77.2561 87.6977 77.1787 87.4923 77.1819 87.2821L77.7292 72.7234L94.8578 79.233L94.2893 94.3543L78.0137 88.2613ZM116.766 88.778L100.077 94.4314L100.646 79.3102L118.247 73.2637L117.702 87.7549C117.7 87.9785 117.609 88.197 117.441 88.3803C117.274 88.5635 117.038 88.7025 116.766 88.778Z" fill="#FF75B7"/>
<defs>
<filter id="filter0_d_3_88" x="0.547852" y="0.542847" width="193.755" height="193.755" filterUnits="userSpaceOnUse" color-interpolation-filters="sRGB">
<feFlood flood-opacity="0" result="BackgroundImageFix"/>
<feColorMatrix in="SourceAlpha" type="matrix" values="0 0 0 0 0 0 0 0 0 0 0 0 0 0 0 0 0 0 127 0" result="hardAlpha"/>
<feMorphology radius="12" operator="erode" in="SourceAlpha" result="effect1_dropShadow_3_88"/>
<feOffset dy="18"/>
<feGaussianBlur stdDeviation="20"/>
<feColorMatrix type="matrix" values="0 0 0 0 1 0 0 0 0 0.458824 0 0 0 0 0.717647 0 0 0 0.35 0"/>
<feBlend mode="normal" in2="BackgroundImageFix" result="effect1_dropShadow_3_88"/>
<feBlend mode="normal" in="SourceGraphic" in2="effect1_dropShadow_3_88" result="shape"/>
</filter>
</defs>
</svg>
