<svg width="196" height="196" viewBox="0 0 196 196" fill="none" xmlns="http://www.w3.org/2000/svg">
<g filter="url(#filter0_d_3_103)">
<circle cx="98" cy="80" r="70" fill="#E2FFF2"/>
</g>
<path d="M116.78 63.4973H79.22C77.0399 63.4973 74.9491 64.1622 73.4076 65.3456C71.866 66.5291 71 68.1342 71 69.8079V98.6431C71 100.317 71.866 101.922 73.4076 103.105C74.9491 104.289 77.0399 104.954 79.22 104.954H116.78C118.96 104.954 121.051 104.289 122.592 103.105C124.134 101.922 125 100.317 125 98.6431V69.8079C125 68.1342 124.134 66.5291 122.592 65.3456C121.051 64.1622 118.96 63.4973 116.78 63.4973ZM83 81.9224H77V77.3161H83V81.9224ZM77 86.5287H83V91.1349H77V86.5287ZM89 68.1036H107V100.347H89V68.1036ZM119 81.9224H113V77.3161H119V81.9224ZM113 86.5287H119V91.1349H113V86.5287ZM119 69.8079V72.7098H113V68.1036H116.78C117.072 68.1036 117.36 68.1477 117.63 68.2333C117.899 68.319 118.144 68.4445 118.35 68.6028C118.556 68.761 118.719 68.9489 118.831 69.1557C118.943 69.3625 119 69.5841 119 69.8079ZM79.22 68.1036H83V72.7098H77V69.8079C77 69.5841 77.0574 69.3625 77.169 69.1557C77.2806 68.9489 77.4441 68.761 77.6502 68.6028C77.8564 68.4445 78.1011 68.319 78.3704 68.2333C78.6398 68.1477 78.9285 68.1036 79.22 68.1036ZM77 98.6431V95.7412H83V100.347H79.22C78.9285 100.347 78.6398 100.303 78.3704 100.218C78.1011 100.132 77.8564 100.007 77.6502 99.8483C77.4441 99.69 77.2806 99.5021 77.169 99.2953C77.0574 99.0886 77 98.867 77 98.6431ZM119 98.6431C119 99.0951 118.766 99.5286 118.35 99.8483C117.933 100.168 117.369 100.347 116.78 100.347H113V95.7412H119V98.6431Z" fill="#2DFF9C"/>
<defs>
<filter id="filter0_d_3_103" x="0" y="0" width="196" height="196" filterUnits="userSpaceOnUse" color-interpolation-filters="sRGB">
<feFlood flood-opacity="0" result="BackgroundImageFix"/>
<feColorMatrix in="SourceAlpha" type="matrix" values="0 0 0 0 0 0 0 0 0 0 0 0 0 0 0 0 0 0 127 0" result="hardAlpha"/>
<feMorphology radius="12" operator="erode" in="SourceAlpha" result="effect1_dropShadow_3_103"/>
<feOffset dy="18"/>
<feGaussianBlur stdDeviation="20"/>
<feColorMatrix type="matrix" values="0 0 0 0 0.0313726 0 0 0 0 0.996078 0 0 0 0 0.564706 0 0 0 0.35 0"/>
<feBlend mode="normal" in2="BackgroundImageFix" result="effect1_dropShadow_3_103"/>
<feBlend mode="normal" in="SourceGraphic" in2="effect1_dropShadow_3_103" result="shape"/>
</filter>
</defs>
</svg>
